<svg width="426" height="426" viewBox="0 0 426 426" fill="none" xmlns="http://www.w3.org/2000/svg">
<path d="M383.982 117.982C378.406 105.07 370.366 93.3701 360.311 83.536C350.249 73.6725 338.386 65.8341 325.366 60.4471C311.865 54.8389 297.385 51.9684 282.766 52.002C262.256 52.002 242.246 57.6182 224.856 68.2266C220.696 70.7643 216.744 73.5516 213 76.5885C209.256 73.5516 205.304 70.7643 201.144 68.2266C183.754 57.6182 163.744 52.002 143.234 52.002C128.466 52.002 114.155 54.8309 100.634 60.4471C87.5713 65.8553 75.798 73.6348 65.6889 83.536C55.6211 93.359 47.5788 105.062 42.0176 117.982C36.235 131.419 33.2812 145.689 33.2812 160.374C33.2812 174.227 36.1102 188.663 41.7264 203.348C46.4273 215.621 53.1668 228.351 61.7783 241.206C75.4236 261.549 94.1859 282.766 117.483 304.274C156.089 339.926 194.321 364.555 195.943 365.553L205.803 371.876C210.171 374.664 215.787 374.664 220.155 371.876L230.015 365.553C231.638 364.513 269.828 339.926 308.476 304.274C331.772 282.766 350.535 261.549 364.18 241.206C372.792 228.351 379.573 215.621 384.232 203.348C389.848 188.663 392.677 174.227 392.677 160.374C392.719 145.689 389.765 131.419 383.982 117.982V117.982ZM213 338.97C213 338.97 64.8984 244.076 64.8984 160.374C64.8984 117.982 99.9685 83.6192 143.234 83.6192C173.645 83.6192 200.02 100.593 213 125.387C225.98 100.593 252.355 83.6192 282.766 83.6192C326.031 83.6192 361.102 117.982 361.102 160.374C361.102 244.076 213 338.97 213 338.97Z" fill="black" fill-opacity="0.8"/>
<path d="M282.766 83.6191C252.355 83.6191 225.98 100.593 213 125.387C200.02 100.593 173.645 83.6191 143.234 83.6191C99.9685 83.6191 64.8984 117.982 64.8984 160.374C64.8984 244.076 213 338.97 213 338.97C213 338.97 361.102 244.076 361.102 160.374C361.102 117.982 326.031 83.6191 282.766 83.6191Z" fill="#406BED"/>
</svg>
